HIERARCHY
ROOT Hips
{
	OFFSET -3.958830 18.904000 13.208200
	CHANNELS 6 Xposition Yposition Zposition Zrotation Yrotation Xrotation 
	JOINT LHipJoint
	{
		OFFSET 0.000000 0.000000 0.000000
		CHANNELS 3 Zrotation Yrotation Xrotation
		JOINT LeftUpLeg
		{
			OFFSET 1.800000 -1.400000 0.085000
			CHANNELS 3 Zrotation Yrotation Xrotation
			JOINT LeftLeg
			{
				OFFSET 2.215000 -6.000000 0.000000
				CHANNELS 3 Zrotation Yrotation Xrotation
				JOINT LeftFoot
				{
					OFFSET 2.500000 -6.900000 0.000000
					CHANNELS 3 Zrotation Yrotation Xrotation
					JOINT LeftToeBase
					{
						OFFSET 0.200000 -0.500000 1.950000
						CHANNELS 3 Zrotation Yrotation Xrotation
						End Site
						{
							OFFSET 0.000000 0.000000 0.000000
						}
					}
				}
			}
		}
	}
	JOINT RHipJoint
	{
		OFFSET 0.000000 0.000000 0.000000
		CHANNELS 3 Zrotation Yrotation Xrotation
		JOINT RightUpLeg
		{
			OFFSET -1.800000 -1.400000 0.085000
			CHANNELS 3 Zrotation Yrotation Xrotation
			JOINT RightLeg
			{
				OFFSET -2.215000 -6.000000 0.000000
				CHANNELS 3 Zrotation Yrotation Xrotation
				JOINT RightFoot
				{
					OFFSET -2.500000 -6.900000 0.000000
					CHANNELS 3 Zrotation Yrotation Xrotation
					JOINT RightToeBase
					{
						OFFSET -0.200000 -0.500000 1.950000
						CHANNELS 3 Zrotation Yrotation Xrotation
						End Site
						{
							OFFSET 0.000000 0.000000 0.000000
						}
					}
				}
			}
		}
	}
	JOINT LowerBack
	{
		OFFSET 0.000000 0.000000 0.000000
		CHANNELS 3 Zrotation Yrotation Xrotation
		JOINT Spine
		{
			OFFSET -0.087000 1.940000 -0.288900
			CHANNELS 3 Zrotation Yrotation Xrotation
			JOINT Spine1
			{
				OFFSET 0.000000 1.950000 0.060000
				CHANNELS 3 Zrotation Yrotation Xrotation
				JOINT Neck
				{
					OFFSET 0.000000 0.000000 0.000000
					CHANNELS 3 Zrotation Yrotation Xrotation
					JOINT Neck1
					{
						OFFSET 0.000000 1.600000 0.340000
						CHANNELS 3 Zrotation Yrotation Xrotation
						JOINT Head
						{
							OFFSET 0.000000 1.667000 -0.240000
							CHANNELS 3 Zrotation Yrotation Xrotation
							End Site
							{
								OFFSET 0.000000 0.000000 0.000000
							}
						}
					}
				}
				JOINT LeftShoulder
				{
					OFFSET 0.000000 0.000000 0.000000
					CHANNELS 3 Zrotation Yrotation Xrotation
					JOINT LeftArm
					{
						OFFSET 2.700000 1.550000 -0.730000
						CHANNELS 3 Zrotation Yrotation Xrotation
						JOINT LeftForeArm
						{
							OFFSET 5.450000 0.000000 0.000000
							CHANNELS 3 Zrotation Yrotation Xrotation
							JOINT LeftHand
							{
								OFFSET 3.450000 0.000000 0.000000
								CHANNELS 3 Zrotation Yrotation Xrotation
								JOINT LeftHandIndex1
								{
									OFFSET 0.750000 0.000000 0.000000
									CHANNELS 3 Zrotation Yrotation Xrotation
									End Site
									{
										OFFSET 0.000000 0.000000 0.000000
									}
								}
							}
						}
					}
				}
				JOINT RightShoulder
				{
					OFFSET 0.000000 0.000000 0.000000
					CHANNELS 3 Zrotation Yrotation Xrotation
					JOINT RightArm
					{
						OFFSET -2.700000 1.550000 -0.730000
						CHANNELS 3 Zrotation Yrotation Xrotation
						JOINT RightForeArm
						{
							OFFSET -5.450000 0.000000 0.000000
							CHANNELS 3 Zrotation Yrotation Xrotation
							JOINT RightHand
							{
								OFFSET -3.450000 0.000000 0.000000
								CHANNELS 3 Zrotation Yrotation Xrotation
								JOINT RightHandIndex1
								{
									OFFSET -0.750000 0.000000 0.000000
									CHANNELS 3 Zrotation Yrotation Xrotation
									End Site
									{
										OFFSET 0.000000 0.000000 0.000000
									}
								}
							}
						}
					}
				}
			}
		}
	}
}
MOTION
Frames: 13
Frame Time: 0.016667
-0.036750 16.097100 2.966320 2.601464 3.204189 -3.232267 -15.973269 14.069164 3.864784 -11.588284 -2.238315 -11.005608 -13.822155 6.973609 13.459558 0.240229 4.176901 3.084684 0.272680 0.222630 0.438620 17.711676 -7.957896 3.971597 10.533135 8.976228 -31.018418 7.781268 -10.706271 47.547080 -1.212942 -6.708305 1.763078 -0.140580 -0.148400 0.357160 -1.701714 -7.477265 -8.882770 12.371049 -7.088315 48.978144 2.341388 -1.906885 6.112318 9.524965 -2.369928 -16.379476 -8.547896 -0.297263 35.555204 -13.377290 3.972980 -17.754740 -20.339244 -19.846122 6.401997 -27.008058 -5.712489 -0.619737 -2.347764 -1.545986 -0.385048 -3.548958 2.891178 0.516330 -0.180900 0.491770 0.034770 1.877042 23.768630 15.632779 21.952053 -12.254823 -6.472055 -15.985155 -7.500555 1.202828 3.247168 -1.222731 0.123050 -0.062350 -0.165920 0.021510 
-0.026250 16.093060 2.977470 3.021553 5.561202 -3.428139 -16.017046 14.079805 3.853379 -11.561411 -1.600341 -9.109937 -14.519416 7.011652 11.841723 0.239268 4.275257 3.062473 0.255660 0.200360 0.436210 17.686524 -7.852772 4.020184 9.868191 9.391545 -31.792328 8.264155 -11.402037 49.492958 -1.293649 -7.127631 1.630218 -0.135730 -0.146550 0.332920 -1.625778 -7.601039 -8.941089 13.214101 -7.043855 48.776245 2.511163 -1.937474 6.747670 9.854849 -2.092680 -16.834548 -8.019799 -1.337739 35.689627 -13.241520 2.827630 -18.032160 -19.430421 -20.889780 7.093741 -27.821450 -4.860744 -0.557005 -1.958600 0.483492 -0.402945 -3.575788 2.837204 0.538330 -0.186530 0.482600 0.018110 0.239554 25.097162 15.744577 27.193062 -11.818745 -7.465586 -16.270900 -7.203925 1.286479 3.216540 -1.219928 0.091280 -0.029030 -0.145090 0.005390 
-0.001780 16.083330 2.992430 4.063832 10.586366 -3.761090 -16.005852 14.099678 3.942128 -12.034887 -0.937855 -6.616550 -14.744139 7.021533 10.665401 0.300353 4.366459 3.018401 0.278140 0.196220 0.445900 17.675615 -8.016607 3.908713 9.684349 8.774105 -29.825075 8.946753 -11.332778 47.642109 -1.255592 -6.868400 1.680297 -0.153620 -0.187920 0.366780 -1.686291 -7.400101 -8.943318 16.326394 -7.697768 47.663806 2.160430 -1.439666 6.859246 9.560788 -1.466020 -17.637290 -6.811803 -3.486074 36.873662 -12.218050 0.283090 -17.772060 -19.146754 -21.719449 8.092055 -26.039364 -2.295650 -0.860208 1.803266 2.392331 -0.268460 -3.598307 2.894199 0.549450 -0.224560 0.496550 0.002520 0.346373 26.338935 15.918721 33.110085 -10.660313 -7.568118 -13.941289 -6.501002 1.298719 3.182409 -1.234546 0.135180 -0.083210 -0.138000 0.007710 
0.015490 16.074740 3.028870 5.320847 15.752378 -2.993649 -16.081413 14.238610 4.041452 -12.505288 -0.760480 -5.494719 -15.313644 7.384152 11.275203 0.349451 4.571956 2.959568 0.255280 0.165970 0.439000 17.589120 -7.966591 3.869965 9.785199 8.693569 -28.718404 8.562599 -10.630733 46.202410 -1.174278 -6.513729 1.815190 -0.168890 -0.198370 0.337600 -1.503598 -7.753229 -9.033404 17.999665 -7.077274 46.924426 4.052573 0.428214 3.077728 8.531313 -0.114359 -17.418439 -4.121571 -5.747276 38.277887 -12.806110 -1.076800 -18.128800 -22.653191 -20.097438 7.645483 -19.683813 1.375499 -1.047704 1.294742 3.601700 -0.398279 -3.636976 2.795638 0.572480 -0.242540 0.492610 -0.004850 5.762544 24.845635 15.507179 32.461337 -10.384931 -6.239696 -11.789139 -5.350616 1.200073 3.123378 -1.176862 0.110950 -0.063930 -0.133610 -0.002260 
0.007180 16.077840 3.056190 7.664206 20.300891 -4.000930 -16.152423 14.393256 4.197478 -13.286770 -0.518857 -2.992778 -15.173502 7.994355 13.352100 0.340787 4.994418 2.808756 0.271980 0.151580 0.517550 17.491335 -8.146385 3.597311 9.079676 7.733157 -24.774251 7.333055 -9.255474 43.441747 -1.057498 -5.887495 2.010817 -0.142520 -0.232270 0.303150 -1.300101 -7.857207 -8.988176 18.020881 -5.433765 47.627183 5.063381 2.099592 2.186355 7.479193 2.308426 -17.727545 0.967194 -7.680707 39.814080 -12.802750 -1.816100 -20.495500 -22.533096 -20.340207 8.368644 -10.972265 3.987797 -0.651594 -0.355740 5.062811 -0.810237 -3.691811 2.606824 0.659980 -0.275760 0.509870 -0.048310 7.223311 24.613798 14.582810 36.902066 -6.277664 -5.689298 -11.742663 -3.055958 1.021385 3.007800 -1.143960 0.047210 -0.001160 -0.116010 -0.069200 
0.025960 16.071810 3.098830 8.791428 26.349222 -3.860742 -16.160474 14.369368 4.250608 -14.333998 -0.501534 -2.302726 -12.449992 7.994137 16.351755 0.199778 5.076481 2.741487 0.317790 0.194440 0.671130 17.446249 -8.466970 3.435759 8.920740 6.773331 -22.272243 6.412278 -8.302554 40.413582 -0.953274 -5.341235 2.157357 -0.069130 -0.314960 0.294700 -1.261139 -7.339646 -8.850181 19.996202 -3.936364 45.161155 5.029819 4.335952 1.328118 7.015928 7.517164 -18.079543 12.007801 -12.833890 37.511238 -16.911070 -2.032500 -22.459770 -22.267185 -21.841042 8.828271 -0.612210 3.476121 -0.195940 -1.883378 6.466907 -1.244885 -3.810179 2.397302 0.708530 -0.262470 0.549380 -0.114210 6.713927 23.629963 13.784548 44.201474 -3.212879 -5.413402 -11.000655 1.291865 0.477784 2.834758 -1.164980 -0.004220 0.021060 -0.133580 -0.165100 
0.009610 16.103750 3.112060 10.444826 31.030804 -5.545097 -16.103532 14.304688 4.324757 -14.123674 -0.277743 -0.454070 -12.030545 8.466535 18.467047 0.176669 5.397934 2.626022 0.427570 0.324470 0.779970 17.448831 -8.993557 3.134406 8.076698 5.046680 -16.291105 4.616718 -6.815645 35.429632 -0.850379 -4.607185 2.400839 0.049110 -0.351050 0.256560 -1.400212 -6.467220 -8.626660 22.386065 -1.683779 44.277374 5.588622 6.070869 6.541932 5.642333 9.055538 -20.572186 16.614599 -16.120932 34.380875 -15.439510 -4.566110 -24.997700 -17.475043 -26.312038 11.109669 5.956947 3.086570 0.237847 -4.394400 4.277490 -1.416070 -3.773733 2.172319 0.759480 -0.295290 0.596050 -0.097650 3.972376 28.204118 14.445795 48.537296 1.271811 -4.206153 -10.254688 0.902214 0.506816 2.758755 -1.211455 -0.041600 0.105640 -0.194260 -0.189870 
0.006500 16.122700 3.147010 13.006982 37.440346 -4.876056 -16.072931 14.250710 4.400408 -15.366491 0.175542 0.787730 -8.068289 8.103593 21.651033 0.168150 5.408291 2.617467 0.507750 0.449000 0.837140 17.429086 -9.394272 2.983695 6.900624 4.331485 -14.736119 1.153664 -5.238777 33.840903 -0.777776 -4.228204 2.533775 0.139400 -0.381540 0.219140 -1.509146 -5.758945 -8.486694 23.055178 0.520536 41.435953 7.356509 6.921799 9.306601 4.073388 10.439206 -22.615426 20.865479 -18.891241 32.334246 -14.856370 -5.992910 -25.394840 -15.814214 -29.062748 12.381591 13.790008 3.544204 0.300850 -2.340195 3.865186 -1.191831 -3.797487 1.943128 0.751720 -0.310920 0.628940 -0.062880 4.920226 30.405176 14.487337 46.483998 4.639792 -3.303715 -12.063670 4.930642 -0.366595 2.691600 -1.284167 -0.046820 0.138580 -0.275740 -0.176970 
0.046550 16.175700 3.156150 15.405173 46.077365 -3.723845 -16.156141 14.748583 4.588249 -16.359306 0.926812 2.968305 -3.351654 7.105222 23.214437 0.272064 5.327875 2.611458 0.590560 0.595690 0.768150 17.293428 -9.277071 2.832282 4.870665 3.905618 -14.041746 1.196633 -5.209861 33.284213 -0.782309 -4.137263 2.551887 0.178720 -0.419560 0.261160 -1.068372 -6.983802 -8.499764 23.138231 -0.232631 40.146708 8.591689 6.689376 6.261078 3.449987 9.833928 -22.233956 18.846394 -19.251692 34.082580 -12.550830 -8.138730 -26.598770 -17.385673 -28.462128 10.491228 23.417894 3.415083 -0.176091 -3.622150 2.748804 -1.164003 -3.718826 1.975323 0.704500 -0.356660 0.668700 -0.005370 7.991718 29.912476 14.024748 39.764182 7.500163 -1.282887 -10.452152 4.748267 -0.260810 2.785441 -1.275986 0.071110 0.068960 -0.313900 -0.093490 
0.029770 16.242800 3.135540 15.539904 55.816802 -6.643653 -15.984634 15.167823 4.556295 -11.893146 1.811988 8.375271 -4.370334 7.883845 22.501642 0.418560 5.873990 2.393068 0.611310 0.622880 0.681500 17.364614 -9.325215 2.872572 3.218126 3.635539 -9.676902 4.746707 -6.189060 29.799660 -0.804647 -4.119798 2.500283 0.186680 -0.414480 0.321990 -1.065105 -7.592288 -8.349157 28.606092 -3.306372 40.162402 5.389637 4.353010 9.622494 3.006071 8.658983 -23.789702 16.166434 -18.393313 34.594213 -8.528610 -10.301530 -27.915810 -13.312579 -30.080768 11.251343 31.175450 7.790476 0.000867 -4.894664 2.371431 -1.480439 -3.702741 1.764871 0.669000 -0.386030 0.646830 -0.026480 4.360538 32.413619 14.224161 34.387434 15.412813 0.432769 -12.245127 2.421764 -0.250357 2.901107 -1.310060 0.153890 0.013500 -0.231210 -0.050950 
-0.002170 16.315690 3.152000 20.189904 61.316937 -6.866060 -15.943058 15.593594 4.748118 -10.157305 3.423701 15.178377 -7.718563 9.203927 19.078369 0.655159 6.522400 2.173612 0.683760 0.733670 0.663490 17.445890 -8.878883 2.647983 0.925865 3.593783 -3.870735 6.870041 -6.417524 27.438318 -0.880482 -4.281989 2.426021 0.255660 -0.419180 0.338340 -0.237830 -9.422394 -8.329310 28.129490 -3.543276 43.904258 2.748204 4.097295 14.594216 2.993269 7.489649 -25.882005 13.290014 -16.090768 33.588017 -5.582260 -10.372140 -29.944670 -6.225023 -29.409993 11.197372 36.531839 15.568750 0.500930 -6.929926 1.917560 -1.939232 -3.504042 1.383590 0.643770 -0.410450 0.660600 0.001700 -2.948972 35.390733 16.543845 28.525606 22.132412 0.191980 -15.067605 1.720022 -0.787150 3.025994 -1.415097 0.198900 0.003910 -0.246360 -0.009600 
-0.045950 16.386450 3.210460 29.264116 63.355200 -4.621855 -16.097020 16.313500 4.948397 -12.949114 6.038042 22.029550 -4.977271 9.039802 17.265776 0.963057 6.895546 2.132615 0.751430 0.888950 0.578880 17.515162 -7.781760 2.037369 -1.132777 3.146087 4.784986 4.110097 -5.265046 25.702720 -0.956870 -4.410539 2.454712 0.350140 -0.284070 0.267980 1.451316 -13.494383 -8.530065 21.372422 -1.654962 51.811907 0.920431 4.648072 21.642375 1.435867 6.332031 -29.365379 7.968489 -13.342483 32.648235 1.272270 -11.254040 -28.870860 6.364515 -21.625940 11.244469 31.133276 24.916783 1.123593 -7.782287 0.448162 -2.138437 -2.900755 0.994588 0.517000 -0.391040 0.609000 0.132070 -13.089864 35.238004 21.803880 15.910516 32.808155 -7.002113 -22.844442 2.254780 -3.378590 3.277025 -1.738091 0.221360 0.110040 -0.323900 0.126810 
0.018950 16.488560 3.325860 36.401821 62.377176 3.475007 -16.871003 16.280682 4.736072 -18.803534 8.727655 19.453173 0.803423 7.642188 18.520842 0.634307 6.832388 2.289356 0.635230 0.915120 0.369530 17.200050 -6.572485 1.651279 1.163547 3.100340 7.569102 -5.044758 -1.958103 23.450482 -0.732634 -4.229355 2.628013 0.568170 0.184930 0.204830 2.932407 -13.429287 -8.295869 6.011784 0.443013 37.779580 -19.365646 -19.125444 37.613578 9.865433 11.031163 -8.928419 2.708207 -11.658801 19.614528 -0.850860 -9.035030 -23.316870 36.383473 -29.496911 -10.373381 60.667583 54.693400 170.579083 2.262463 -3.705945 -2.312252 -0.988588 -4.417212 0.273740 0.004590 0.339050 0.238310 -65.528813 38.713199 36.729236 -60.770514 36.956488 -158.223709 -18.686615 14.612798 -2.245941 1.722860 -2.011526 -0.011400 0.443210 -0.204900 0.196350 
